<svg width="37" height="44" viewBox="0 0 37 44" fill="none" xmlns="http://www.w3.org/2000/svg">
<path d="M30.8281 42.2347C28.4374 44.5566 25.8271 44.19 23.3144 43.0901C20.6554 41.9658 18.2159 41.9169 15.4105 43.0901C11.8976 44.6055 10.0436 44.1655 7.94562 42.2347C-3.95911 29.9407 -2.20267 11.2186 11.3121 10.5342C14.6054 10.7053 16.8986 12.3429 18.8258 12.4895C21.7044 11.9029 24.461 10.2165 27.5348 10.4365C31.2184 10.7298 33.9994 12.1962 35.829 14.8359C28.2178 19.4064 30.023 29.4518 37 32.2626C35.6095 35.9288 33.8043 39.5706 30.8037 42.2591L30.8281 42.2347ZM18.5818 10.3876C18.2159 4.93715 22.6314 0.439944 27.7055 0C28.413 6.30587 21.9971 10.9986 18.5818 10.3876Z" fill="black"/>
</svg>
