<svg width="24" height="14" viewBox="0 0 24 14" fill="none" xmlns="http://www.w3.org/2000/svg">
<path d="M0.528277 0.535359C0.866635 0.192569 1.32548 0 1.80392 0C2.28236 0 2.74121 0.192569 3.07957 0.535359L12.0109 9.5864L20.9422 0.535359C21.2825 0.202284 21.7383 0.0179809 22.2114 0.022147C22.6845 0.0263131 23.137 0.218614 23.4715 0.557632C23.8061 0.89665 23.9958 1.35526 23.9999 1.83468C24.004 2.31411 23.8222 2.77599 23.4935 3.12085L13.2865 13.4646C12.9482 13.8074 12.4893 14 12.0109 14C11.5325 14 11.0736 13.8074 10.7352 13.4646L0.528277 3.12085C0.190021 2.77796 0 2.31295 0 1.8281C0 1.34325 0.190021 0.878252 0.528277 0.535359Z" fill="white"/>
</svg>
