<svg width="42" height="42" viewBox="0 0 42 42" fill="none" xmlns="http://www.w3.org/2000/svg">
<path d="M41.5915 16.8871H39.9V16.8H21V25.2H32.8681C31.1367 30.0898 26.4841 33.6 21 33.6C14.0416 33.6 8.39999 27.9583 8.39999 21C8.39999 14.0416 14.0416 8.39999 21 8.39999C24.2119 8.39999 27.1341 9.61169 29.359 11.5909L35.2989 5.6511C31.5483 2.15565 26.5314 0 21 0C9.40274 0 0 9.40274 0 21C0 32.5972 9.40274 42 21 42C32.5972 42 42 32.5972 42 21C42 19.5919 41.8551 18.2175 41.5915 16.8871Z" fill="#FFC107"/>
<path d="M2.42188 11.2255L9.32142 16.2855C11.1883 11.6634 15.7096 8.39999 21.0006 8.39999C24.2125 8.39999 27.1347 9.61169 29.3596 11.5909L35.2994 5.6511C31.5489 2.15565 26.532 0 21.0006 0C12.9345 0 5.93937 4.55385 2.42188 11.2255Z" fill="#FF3D00"/>
<path d="M20.9999 42.0001C26.4242 42.0001 31.3529 39.9243 35.0794 36.5485L28.5799 31.0486C26.4006 32.7059 23.7377 33.6023 20.9999 33.6001C15.5378 33.6001 10.9 30.1173 9.15278 25.2568L2.30469 30.5331C5.78018 37.3339 12.8383 42.0001 20.9999 42.0001Z" fill="#4CAF50"/>
<path d="M41.5915 16.887H39.9V16.7998H21V25.1998H32.8681C32.0399 27.527 30.548 29.5606 28.5768 31.0493L28.5799 31.0472L35.0794 36.5471C34.6195 36.965 42 31.4998 42 20.9998C42 19.5918 41.8551 18.2173 41.5915 16.887Z" fill="#1976D2"/>
</svg>
