<svg width="32" height="34" viewBox="0 0 32 34" fill="none" xmlns="http://www.w3.org/2000/svg">
<g filter="url(#filter0_d_270_51)">
<path d="M26.1248 26L18.7496 17.9678C17.1256 19.2888 15.154 20.0049 13.1271 20.01H13.1251L13.0177 20.0111C10.626 20.0111 8.33235 18.9764 6.64121 17.1346C4.95007 15.2929 4 12.7949 4 10.1903L4.00099 10.0668V10.0733C4.00099 7.40166 4.97549 4.83949 6.71009 2.95039C8.4447 1.06129 10.7973 0 13.2504 0C15.7035 0 18.0562 1.06129 19.7908 2.95039C21.5254 4.83949 22.4999 7.40166 22.4999 10.0733C22.4742 12.2902 21.8119 14.4428 20.6058 16.229L20.6247 16.1998L28 24.2319L26.1248 26ZM13.2504 2.72145C11.4696 2.65874 9.73883 3.36848 8.43825 4.69474C7.13767 6.02101 6.37371 7.8553 6.31422 9.79463C6.25473 11.734 6.90457 13.6197 8.12097 15.0375C9.33737 16.4554 11.0208 17.2893 12.8015 17.3562C14.5822 17.4231 16.3144 16.7174 17.6176 15.3942C18.9208 14.071 19.6883 12.2385 19.7516 10.2993C19.815 8.36007 19.1688 6.47282 17.9552 5.05215C16.7416 3.63147 15.0598 2.79356 13.2793 2.72253L13.2504 2.72145Z" fill="#FFED48"/>
</g>
<defs>
<filter id="filter0_d_270_51" x="0" y="0" width="32" height="34" filterUnits="userSpaceOnUse" color-interpolation-filters="sRGB">
<feFlood flood-opacity="0" result="BackgroundImageFix"/>
<feColorMatrix in="SourceAlpha" type="matrix" values="0 0 0 0 0 0 0 0 0 0 0 0 0 0 0 0 0 0 127 0" result="hardAlpha"/>
<feOffset dy="4"/>
<feGaussianBlur stdDeviation="2"/>
<feComposite in2="hardAlpha" operator="out"/>
<feColorMatrix type="matrix" values="0 0 0 0 0.961667 0 0 0 0 0.961667 0 0 0 0 0.961667 0 0 0 0.23 0"/>
<feBlend mode="normal" in2="BackgroundImageFix" result="effect1_dropShadow_270_51"/>
<feBlend mode="normal" in="SourceGraphic" in2="effect1_dropShadow_270_51" result="shape"/>
</filter>
</defs>
</svg>
