<svg width="62" height="44" viewBox="0 0 62 44" fill="none" xmlns="http://www.w3.org/2000/svg">
<path fill-rule="evenodd" clip-rule="evenodd" d="M42.9937 18.6767C41.5691 8.13047 32.5313 0.000244141 21.5946 0.000244141C9.66823 0.000244141 0 9.66848 0 21.5948C0 33.5212 9.66823 43.1895 21.5946 43.1895C32.5313 43.1895 41.569 35.0593 42.9937 24.5131H58.9475C60.5591 24.5131 61.8656 23.2066 61.8656 21.5949C61.8656 19.9832 60.5591 18.6767 58.9475 18.6767H42.9937ZM37.2458 18.6767C35.8752 11.2791 29.3892 5.67673 21.5946 5.67673C12.8033 5.67673 5.67649 12.8035 5.67649 21.5948C5.67649 30.3862 12.8033 37.513 21.5946 37.513C29.3891 37.513 35.8752 31.9107 37.2458 24.5131H31.3706C29.7589 24.5131 28.4524 23.2066 28.4524 21.5949C28.4524 19.9832 29.7589 18.6767 31.3706 18.6767H37.2458Z" fill="url(#paint0_linear_129_102)"/>
<defs>
<linearGradient id="paint0_linear_129_102" x1="30.9328" y1="0.000244141" x2="30.9328" y2="43.1895" gradientUnits="userSpaceOnUse">
<stop stop-color="#FFED48"/>
<stop offset="1" stop-color="#F1F1F1"/>
</linearGradient>
</defs>
</svg>
