<svg width="56" height="56" viewBox="0 0 56 56" fill="none" xmlns="http://www.w3.org/2000/svg">
<path d="M3.81939 4.2V37.7813H52.1834V4.2H3.81939ZM53.4547 0C54.8603 0 56 1.25378 56 2.8V39.1813C56 40.7275 54.8603 41.9813 53.4519 41.9813L29.5667 41.9782V51.8H39.1908C40.2464 51.8 41.1005 52.7426 41.1005 53.9C41.0994 54.1772 41.0491 54.4515 40.9525 54.7072C40.8559 54.9628 40.7148 55.1948 40.5375 55.3899C40.3601 55.5849 40.1499 55.7392 39.9188 55.8439C39.6877 55.9486 39.4403 56.0016 39.1908 56H16.7476C16.4981 56.0016 16.2507 55.9486 16.0196 55.8439C15.7885 55.7392 15.5783 55.5849 15.4009 55.3899C15.2236 55.1948 15.0825 54.9628 14.9859 54.7072C14.8893 54.4515 14.839 54.1772 14.8379 53.9C14.8379 52.7426 15.6948 51.8031 16.7476 51.8031L25.7529 51.8V41.9782H2.54533C1.87446 41.9823 1.22955 41.6904 0.752282 41.1666C0.275019 40.6427 0.0044424 39.9298 0 39.1844L0 2.8C0 1.25378 1.13966 0 2.54813 0H53.4547Z" fill="white"/>
<path d="M34.2507 15.0547H20.95C20.6981 15.0547 20.4564 15.1659 20.2783 15.3639C20.1001 15.5618 20 15.8303 20 16.1102V29.8325C20 30.1124 20.1001 30.3809 20.2783 30.5788C20.4564 30.7768 20.6981 30.888 20.95 30.888H34.2507C34.5027 30.888 34.7443 30.7768 34.9225 30.5788C35.1007 30.3809 35.2008 30.1124 35.2008 29.8325V16.1102C35.2008 15.8303 35.1007 15.5618 34.9225 15.3639C34.7443 15.1659 34.5027 15.0547 34.2507 15.0547Z" stroke="#FFED48" stroke-width="1.83" stroke-linecap="round" stroke-linejoin="round"/>
<path d="M24.2734 17.1662V13.4718C24.2734 12.9866 24.3594 12.5062 24.5266 12.058C24.6937 11.6098 24.9386 11.2025 25.2474 10.8594C25.5561 10.5164 25.9227 10.2442 26.3261 10.0586C26.7295 9.8729 27.1619 9.77734 27.5986 9.77734C28.0353 9.77734 28.4677 9.8729 28.8711 10.0586C29.2745 10.2442 29.6411 10.5164 29.9499 10.8594C30.2586 11.2025 30.5036 11.6098 30.6707 12.058C30.8378 12.5062 30.9238 12.9866 30.9238 13.4718V17.1662" stroke="#FFED48" stroke-width="1.83" stroke-linecap="round" stroke-linejoin="round"/>
</svg>
