<svg width="56" height="56" viewBox="0 0 56 56" fill="none" xmlns="http://www.w3.org/2000/svg">
<path d="M5.02444 56C3.59333 56 2.39867 55.461 1.44044 54.383C0.480148 53.3027 0 51.9575 0 50.3475V36.75H21.7778V42H34.2222V36.75H56V50.3475C56 51.9575 55.5209 53.3015 54.5627 54.3795C53.6024 55.4598 52.4067 56 50.9756 56H5.02444ZM24.8889 38.5V31.5H31.1111V38.5H24.8889ZM0 33.25V16.1525C0 14.5425 0.480148 13.1985 1.44044 12.1205C2.39867 11.0402 3.59333 10.5 5.02444 10.5H18.6667V5.6525C18.6667 4.0425 19.1468 2.6985 20.1071 1.6205C21.0653 0.540166 22.26 0 23.6911 0H32.3089C33.74 0 34.9357 0.540166 35.896 1.6205C36.8542 2.6985 37.3333 4.0425 37.3333 5.6525V10.5H50.9756C52.4067 10.5 53.6013 11.0402 54.5596 12.1205C55.5199 13.1985 56 14.5425 56 16.1525V33.25H34.2222V28H21.7778V33.25H0ZM21.7778 10.5H34.2222V5.6525C34.2222 5.11583 34.0231 4.62233 33.6249 4.172C33.2246 3.724 32.7859 3.5 32.3089 3.5H23.6911C23.2141 3.5 22.7754 3.724 22.3751 4.172C21.9769 4.62233 21.7778 5.11583 21.7778 5.6525V10.5Z" fill="url(#paint0_linear_129_149)"/>
<defs>
<linearGradient id="paint0_linear_129_149" x1="28" y1="19.5" x2="28" y2="38.5" gradientUnits="userSpaceOnUse">
<stop stop-color="#FFEC3E"/>
<stop offset="1" stop-color="white"/>
</linearGradient>
</defs>
</svg>
