<svg width="62" height="62" viewBox="0 0 62 62" fill="none" xmlns="http://www.w3.org/2000/svg">
<path d="M45 39.4004H31M17 25.4004L17.6552 25.9464C21.2448 28.9368 23.0396 30.432 23.0396 32.4004C23.0396 34.3688 21.2476 35.864 17.6552 38.8544L17 39.4004" stroke="#FFED48" stroke-width="4.375" stroke-linecap="round"/>
<path d="M59 31C59 44.1992 59 50.7988 54.898 54.898C50.8016 59 44.1992 59 31 59C17.8008 59 11.2012 59 7.0992 54.898C3 50.8016 3 44.1992 3 31C3 17.8008 3 11.2012 7.0992 7.0992C11.204 3 17.8008 3 31 3C44.1992 3 50.7988 3 54.898 7.0992C57.6252 9.8264 58.538 13.6596 58.846 19.8" stroke="white" stroke-width="4.375" stroke-linecap="round"/>
</svg>
