<svg width="56" height="56" viewBox="0 0 56 56" fill="none" xmlns="http://www.w3.org/2000/svg">
<path d="M24.5 6.99986C21.8295 6.99986 19.3375 7.74536 17.213 9.04386C16.9934 7.8693 16.5932 6.73586 16.0265 5.68386C18.691 4.20931 21.6942 3.45561 24.7393 3.49725C27.7843 3.53889 30.7658 4.37442 33.389 5.92128C36.0122 7.46813 38.1864 9.67275 39.6966 12.3172C41.2068 14.9617 42.0007 17.9545 42 20.9999H50.7535C52.1453 21.0008 53.4797 21.5543 54.4636 22.5388C55.4474 23.5233 56 24.8581 56 26.2499V47.2499C56 48.6422 55.4469 49.9776 54.4623 50.9622C53.4777 51.9467 52.1424 52.4999 50.75 52.4999H29.75C28.3576 52.4999 27.0223 51.9467 26.0377 50.9622C25.0531 49.9776 24.5 48.6422 24.5 47.2499V38.4999C22.0653 38.5029 19.657 37.9962 17.43 37.0124C17.4755 35.8224 17.5 34.5729 17.5 33.2499V33.1274C19.558 34.3174 21.9485 34.9999 24.5 34.9999V26.2499C24.5 24.8575 25.0531 23.5221 26.0377 22.5375C27.0223 21.553 28.3576 20.9999 29.75 20.9999H38.5C38.5 17.2868 37.025 13.7259 34.3995 11.1004C31.774 8.47485 28.213 6.99986 24.5 6.99986ZM41.65 24.4999C40.9616 27.8618 39.301 30.9476 36.8744 33.3742C34.4478 35.8009 31.362 37.4614 28 38.1499V47.2499C28 47.714 28.1844 48.1591 28.5126 48.4873C28.8407 48.8155 29.2859 48.9999 29.75 48.9999H50.75C51.2141 48.9999 51.6592 48.8155 51.9874 48.4873C52.3156 48.1591 52.5 47.714 52.5 47.2499V26.2499C52.5 25.7857 52.3156 25.3406 51.9874 25.0124C51.6592 24.6842 51.2141 24.4999 50.75 24.4999H41.65ZM38.059 24.4999H29.75C29.2859 24.4999 28.8407 24.6842 28.5126 25.0124C28.1844 25.3406 28 25.7857 28 26.2499V34.5589C30.4213 33.9315 32.6309 32.6681 34.3995 30.8994C36.1682 29.1307 37.4317 26.9212 38.059 24.4999ZM9.0335 0.43736C9.32401 0.691466 9.52237 1.03449 9.5977 1.41303C9.67303 1.79157 9.6211 2.18439 9.45 2.53036C9.42037 2.63276 9.40506 2.73876 9.4045 2.84536C9.4045 3.06586 9.4605 3.48586 9.989 4.01086C10.2445 4.26636 10.4405 4.44836 10.654 4.64786C10.829 4.80886 11.0145 4.97686 11.249 5.20786C11.704 5.64186 12.1835 6.15286 12.614 6.79336C13.5065 8.13386 14 9.81036 14 12.2499C14 15.2354 12.894 17.7799 11.1685 19.3409L11.3925 19.5999C12.3725 20.8039 12.943 22.3649 13.3 23.9049C14 26.9499 14 30.6109 14 33.1624V33.2499C14 43.0044 12.6735 48.5379 11.214 51.7019C10.479 53.2944 9.6985 54.3094 9.023 54.9464C8.74837 55.2098 8.44554 55.4422 8.12 55.6394C7.97094 55.7291 7.81533 55.8075 7.6545 55.8739C7.6545 55.8739 7.259 55.9999 7 55.9999C6.741 55.9999 6.3455 55.8739 6.3455 55.8739C6.18292 55.8114 6.02698 55.7328 5.88 55.6394C5.55446 55.4422 5.25163 55.2098 4.977 54.9464C4.3015 54.3059 3.521 53.2944 2.786 51.7019C1.3265 48.5379 0 43.0044 0 33.2499V33.1624C0 30.6074 1.78814e-07 26.9499 0.7 23.9049C1.057 22.3649 1.6275 20.8039 2.6075 19.5999C2.6775 19.5124 2.7545 19.4249 2.8315 19.3409C1.106 17.7799 0 15.2354 0 12.2499C0 11.1089 0.3045 9.74736 0.7245 8.49086C1.1445 7.23086 1.7325 5.92886 2.4115 4.87886C3.22 3.51386 4.3575 2.36936 5.2395 1.59936C5.72305 1.1741 6.22769 0.773424 6.7515 0.39886L6.8565 0.32886L6.888 0.304359L6.8985 0.29736L6.9055 0.29386C7.22644 0.0799283 7.60906 -0.0219838 7.99389 0.00396686C8.37872 0.0299175 8.74419 0.182277 9.0335 0.43736ZM7 17.4999C8.3545 17.4964 10.5 15.9949 10.5 12.2499C10.5 10.3144 10.1185 9.36586 9.6985 8.73586C9.44314 8.36789 9.14858 8.02874 8.82 7.72436L8.386 7.31836C8.1025 7.05236 7.77 6.74436 7.511 6.48886C7.1282 6.11005 6.79959 5.68015 6.5345 5.21136C6.08899 5.6798 5.69691 6.19631 5.3655 6.75136C4.8755 7.50386 4.3995 8.53636 4.046 9.60036C3.682 10.6854 3.5 11.6444 3.5 12.2499C3.5 16.0019 5.6525 17.4999 7 17.4999ZM5.32 21.8119C4.823 22.4174 4.41 23.3834 4.109 24.6924C3.507 27.3104 3.5 30.6004 3.5 33.2499C3.5 42.7454 4.7985 47.7119 5.964 50.2354C6.349 51.0649 6.7095 51.6179 7 51.9854C7.41353 51.4452 7.76131 50.8577 8.036 50.2354C9.2015 47.7119 10.5 42.7454 10.5 33.2499C10.5 30.6004 10.493 27.3104 9.8875 24.6924C9.5865 23.3834 9.1735 22.4174 8.68 21.8119C8.48695 21.5503 8.2331 21.3396 7.94039 21.1982C7.64768 21.0567 7.32491 20.9886 7 20.9999H6.993C6.66921 20.9895 6.34774 21.058 6.0563 21.1994C5.76485 21.3409 5.51217 21.5511 5.32 21.8119Z" fill="url(#paint0_linear_129_132)"/>
<defs>
<linearGradient id="paint0_linear_129_132" x1="5" y1="4.5" x2="51.5" y2="51.5" gradientUnits="userSpaceOnUse">
<stop stop-color="#FFED48"/>
<stop offset="1" stop-color="white"/>
</linearGradient>
</defs>
</svg>
