<svg width="56" height="56" viewBox="0 0 56 56" fill="none" xmlns="http://www.w3.org/2000/svg">
<path d="M48.8279 7.68627H38.6207V0H0V47.2157C0.00229997 49.5446 0.816829 51.7774 2.26489 53.4242C3.71295 55.0711 5.67628 55.9974 7.72414 56H30.8966C32.9444 55.9974 34.9077 55.0711 36.3558 53.4242C37.8039 51.7774 38.6184 49.5446 38.6207 47.2157V46.1176H48.8279C50.7294 46.1152 52.5524 45.2551 53.897 43.726C55.2415 42.1969 55.9979 40.1236 56 37.9611V15.8428C55.9979 13.6803 55.2415 11.6071 53.897 10.0779C52.5524 8.54883 50.7294 7.68871 48.8279 7.68627ZM15.6141 24.0051L19.3103 28.2088V36.0835H11.5862V28.2088L15.2826 24.0051H15.6141ZM52.1379 37.9611C52.1369 38.9592 51.7879 39.916 51.1673 40.6217C50.5468 41.3274 49.7055 41.7244 48.8279 41.7255H34.7586V47.2157C34.7575 48.3802 34.3502 49.4966 33.6262 50.32C32.9021 51.1434 31.9205 51.6065 30.8966 51.6078H7.72414C6.70021 51.6065 5.71854 51.1434 4.99451 50.32C4.27048 49.4966 3.86322 48.3802 3.86207 47.2157V4.39216H13.5172V19.8012L7.72414 26.3895V40.4756H23.1724V26.3895L17.3793 19.8012V4.39216H34.7586V12.0784H48.8279C49.7055 12.0796 50.5468 12.4765 51.1673 13.1822C51.7879 13.8879 52.1369 14.8448 52.1379 15.8428V37.9611Z" fill="url(#paint0_linear_129_158)"/>
<path d="M46.344 15.9219H34.7578V37.8827H46.344C46.984 37.8818 47.5975 37.5923 48.05 37.0777C48.5025 36.5631 48.7571 35.8654 48.7578 35.1376V18.667C48.7571 17.9392 48.5025 17.2414 48.05 16.7268C47.5975 16.2122 46.984 15.9227 46.344 15.9219ZM44.8957 33.4905H38.6199V20.314H44.8957V33.4905Z" fill="#FFED48"/>
<defs>
<linearGradient id="paint0_linear_129_158" x1="-4.66659e-07" y1="21.5" x2="45.5" y2="31" gradientUnits="userSpaceOnUse">
<stop stop-color="#FFED48"/>
<stop offset="1" stop-color="white"/>
</linearGradient>
</defs>
</svg>
