<svg width="56" height="56" viewBox="0 0 56 56" fill="none" xmlns="http://www.w3.org/2000/svg">
<path d="M38.7785 8.32275L39.0095 9.00001H39.725H52.5C53.1167 9.00001 53.74 9.27885 54.2223 9.83008C54.7084 10.3856 55 11.1644 55 12V52C55 52.8356 54.7084 53.6144 54.2223 54.1699C53.74 54.7212 53.1167 55 52.5 55H3.5C2.88333 55 2.26004 54.7212 1.7777 54.1699C1.29164 53.6144 1 52.8356 1 52V12C1 11.1644 1.29164 10.3856 1.7777 9.83009C2.26004 9.27884 2.88333 9.00001 3.5 9.00001H16.275H16.9927L17.2224 8.32002L19.0599 2.88002L19.06 2.8799C19.2573 2.29553 19.598 1.81464 20.017 1.48684C20.4338 1.16079 20.91 0.9989 21.3827 1.00001H21.385H34.6131C35.0834 1.00194 35.5565 1.16521 35.9706 1.49088C36.3874 1.81863 36.7261 2.29801 36.9225 2.8799L36.9235 2.88275L38.7785 8.32275ZM39.725 8.00001L37.87 2.56001L3.5 8.00001C2.57174 8.00001 1.6815 8.42144 1.02513 9.17158C0.368749 9.92173 0 10.9391 0 12V52C0 53.0609 0.368749 54.0783 1.02513 54.8284C1.6815 55.5786 2.57174 56 3.5 56H52.5C53.4283 56 54.3185 55.5786 54.9749 54.8284C55.6313 54.0783 56 53.0609 56 52V12C56 10.9391 55.6313 9.92173 54.9749 9.17158C54.3185 8.42144 53.4283 8.00001 52.5 8.00001H39.725ZM52.5 53H53.5V52V12V11H52.5H38.0444L35.562 3.6789L35.3319 3.00001H34.615H21.385H20.6681L20.438 3.6789L17.9556 11H3.5H2.5V12V52V53H3.5H52.5Z" stroke="white" stroke-width="2"/>
<path d="M41.95 30V29.9988C41.9451 25.8503 40.5021 21.8509 37.9045 18.8822C35.3032 15.9092 31.7457 14.2058 28.0015 14.2H28C25.2088 14.2 22.4938 15.1467 20.1985 16.8995C17.9053 18.6506 16.136 21.1249 15.0956 23.9955C14.0552 26.866 13.7845 30.0185 14.3136 33.0588C14.8428 36.0991 16.1513 38.9076 18.0904 41.1237C20.0306 43.3411 22.5196 44.8696 25.2519 45.4907C27.9862 46.1123 30.8185 45.7916 33.3836 44.5773C35.9461 43.3642 38.1144 41.3208 39.6308 38.7272C41.1468 36.1342 41.95 33.0975 41.95 30ZM15.7676 39.4955C14.13 36.6946 13.25 33.3898 13.25 30C13.25 25.4514 14.8323 21.1116 17.6156 17.9306C20.3953 14.7538 24.1344 13 28 13C30.8851 13 33.7189 13.977 36.1433 15.8283C38.5698 17.6813 40.4791 20.3297 41.6109 23.4524C42.7428 26.5754 43.0404 30.0179 42.4622 33.3402C41.8839 36.6624 40.459 39.6983 38.3844 42.0694C36.3108 44.4392 33.6859 46.0345 30.851 46.679C28.018 47.323 25.0797 46.9942 22.4006 45.726C19.7188 44.4565 17.4048 42.2958 15.7676 39.4955Z" stroke="#FFEC3E" stroke-width="2"/>
<path d="M11.7358 17.1877C11.8281 17.2931 11.8984 17.4615 11.8984 17.6605C11.8984 17.8596 11.8281 18.028 11.7358 18.1334L12.4884 18.7919L11.7358 18.1334C11.6473 18.2346 11.5582 18.2605 11.4984 18.2605H7.29844C7.23872 18.2605 7.14957 18.2346 7.06107 18.1334C6.96882 18.028 6.89844 17.8596 6.89844 17.6605C6.89844 17.4615 6.96882 17.2931 7.06107 17.1877C7.14957 17.0865 7.23872 17.0605 7.29844 17.0605H11.4984C11.5582 17.0605 11.6473 17.0865 11.7358 17.1877Z" stroke="#FFED48" stroke-width="2"/>
<path d="M20.5306 35.4467C19.614 33.83 19.1124 31.9385 19.094 29.9929C19.082 28.0496 19.5538 26.1498 20.4451 24.5161C21.3364 22.8825 22.6046 21.5919 24.0864 20.7769C25.566 19.9632 27.2059 19.6517 28.8197 19.867C30.1961 20.0506 31.5216 20.6134 32.682 21.5154L32.1958 22.407C31.5808 21.9016 30.9001 21.4939 30.1717 21.2009C29.0184 20.737 27.7826 20.5758 26.5601 20.7337C25.3381 20.8915 24.1724 21.3626 23.1497 22.1011C22.1279 22.8391 21.2766 23.8236 20.6514 24.9726C20.0264 26.1216 19.6406 27.4102 19.5174 28.7419C19.3943 30.0736 19.5362 31.4214 19.9347 32.6861C20.3333 33.9508 20.9803 35.1063 21.8356 36.0619C22.4306 36.7269 23.1167 37.2839 23.8693 37.7108L23.3841 38.6046C22.2493 37.8247 21.2694 36.7496 20.5306 35.4467Z" stroke="#FFEC3E" stroke-width="2"/>
</svg>
