<svg width="60" height="56" viewBox="0 0 60 56" fill="none" xmlns="http://www.w3.org/2000/svg">
<path d="M48.1599 56C46.7403 56 45.5249 55.4917 44.5136 54.475C43.5045 53.4607 43 52.24 43 50.813C43 49.386 43.5045 48.1648 44.5136 47.1493C45.5249 46.1338 46.7403 45.626 48.1599 45.626C48.8192 45.626 49.4447 45.7436 50.0363 45.9787C50.628 46.215 51.1491 46.5695 51.5998 47.0421V29H60V33.3899H53.3197V50.813C53.3197 52.2389 52.814 53.4595 51.8027 54.475C50.7914 55.4905 49.5771 55.9988 48.1599 56Z" fill="#FFED48"/>
<path d="M36.6112 3.72884L52.1517 18.9113C57.114 14.0888 57.3114 7.9718 52.5452 3.34322C47.8078 -1.2301 41.5471 -1.12076 36.6112 3.72884ZM33.7919 6.51163C30.8018 9.37788 29.5612 12.6568 29.9835 15.8252L3.7844 43.4062C2.71348 44.5372 2.54381 46.1078 3.86863 47.4034L0.258774 51.9497C-0.107025 52.3894 -0.107025 53.0243 0.400762 53.5192L1.219 54.3469C1.6979 54.8148 2.34648 54.843 2.85426 54.4562L7.50737 50.9022C8.77683 52.1978 10.4121 52.0308 11.5396 50.9845L26.1487 37.7583V53.4922C26.1487 54.8971 27.3038 55.9999 28.743 55.9999C29.081 56.0035 29.4165 55.9411 29.7295 55.8163C30.0426 55.6916 30.327 55.507 30.5661 55.2734C30.8052 55.0399 30.9941 54.762 31.1217 54.4561C31.2494 54.1502 31.3133 53.8225 31.3096 53.4922V37.2069L31.1122 33.2673L39.7133 25.4691C42.9574 25.883 46.3699 24.5874 49.3035 21.6953L33.7919 6.51163ZM6.66146 45.667L31.5358 19.9318C32.0147 20.7018 32.6067 21.446 33.3118 22.1632C33.9831 22.8291 34.7199 23.4288 35.5114 23.9537L9.28342 48.2017L6.66146 45.667Z" fill="url(#paint0_linear_129_138)"/>
<defs>
<linearGradient id="paint0_linear_129_138" x1="42.5" y1="10.5" x2="28" y2="24" gradientUnits="userSpaceOnUse">
<stop stop-color="#FFED48"/>
<stop offset="1" stop-color="white"/>
</linearGradient>
</defs>
</svg>
