<svg width="58" height="58" viewBox="0 0 58 58" fill="none" xmlns="http://www.w3.org/2000/svg">
<path d="M12.3514 0.5H3.27027C1.61321 0.5 0.5 1.89871 0.5 3.625V54.375C0.5 56.1013 1.61321 57.5 3.27027 57.5H54.7297C56.3868 57.5 57.5 56.1013 57.5 54.375V3.625C57.5 1.89871 56.3868 0.5 54.7297 0.5H12.3514ZM3.01351 54.375V3.625C3.01351 3.43225 3.06325 3.34291 3.09242 3.30917C3.11342 3.28489 3.15573 3.25 3.27027 3.25H11.0946V54.75H3.27027C3.15573 54.75 3.11342 54.7151 3.09243 54.6908C3.06325 54.6571 3.01351 54.5677 3.01351 54.375ZM13.6081 54.75V3.25H44.3919V54.75H13.6081ZM54.9865 3.625V54.375C54.9865 54.5677 54.9368 54.6571 54.9076 54.6908C54.8866 54.7151 54.8443 54.75 54.7297 54.75H46.9054V3.25H54.7297C54.8443 3.25 54.8866 3.28489 54.9076 3.30917C54.9368 3.34291 54.9865 3.43225 54.9865 3.625Z" fill="white" stroke="white"/>
<mask id="path-2-outside-1_129_141" maskUnits="userSpaceOnUse" x="3.78516" y="7" width="51" height="46" fill="black">
<rect fill="white" x="3.78516" y="7" width="51" height="46"/>
<path d="M23.3666 18.647C23.2524 18.5592 23.1198 18.5088 22.9828 18.5011C22.8458 18.4934 22.7096 18.5287 22.5886 18.6033C22.4683 18.6785 22.3679 18.79 22.2978 18.9258C22.2277 19.0617 22.1907 19.2168 22.1906 19.375V40.375C22.1906 40.5333 22.2278 40.6886 22.2982 40.8243C22.3686 40.9601 22.4694 41.0712 22.5901 41.1459C22.7108 41.2206 22.8468 41.2561 22.9835 41.2485C23.1202 41.241 23.2526 41.1907 23.3666 41.103L36.9882 30.603C37.0915 30.5228 37.1762 30.4145 37.2347 30.2875C37.2933 30.1606 37.3239 30.0189 37.3239 29.875C37.3239 29.7311 37.2933 29.5894 37.2347 29.4625C37.1762 29.3355 37.0915 29.2272 36.9882 29.147L23.3666 18.647ZM23.7041 38.7405V21.0095L35.2053 29.875L23.7041 38.7405ZM8.56894 15H5.54191C5.34121 15 5.14872 15.0922 5.00681 15.2563C4.86489 15.4204 4.78516 15.6429 4.78516 15.875C4.78516 16.1071 4.86489 16.3296 5.00681 16.4937C5.14872 16.6578 5.34121 16.75 5.54191 16.75H8.56894C8.76964 16.75 8.96213 16.6578 9.10405 16.4937C9.24597 16.3296 9.3257 16.1071 9.3257 15.875C9.3257 15.6429 9.24597 15.4204 9.10405 15.2563C8.96213 15.0922 8.76964 15 8.56894 15ZM5.54191 9.75H8.56894C8.76964 9.75 8.96213 9.65781 9.10405 9.49372C9.24597 9.32962 9.3257 9.10706 9.3257 8.875C9.3257 8.64294 9.24597 8.42038 9.10405 8.25628C8.96213 8.09219 8.76964 8 8.56894 8H5.54191C5.34121 8 5.14872 8.09219 5.00681 8.25628C4.86489 8.42038 4.78516 8.64294 4.78516 8.875C4.78516 9.10706 4.86489 9.32962 5.00681 9.49372C5.14872 9.65781 5.34121 9.75 5.54191 9.75ZM8.56894 22H5.54191C5.34121 22 5.14872 22.0922 5.00681 22.2563C4.86489 22.4204 4.78516 22.6429 4.78516 22.875C4.78516 23.1071 4.86489 23.3296 5.00681 23.4937C5.14872 23.6578 5.34121 23.75 5.54191 23.75H8.56894C8.76964 23.75 8.96213 23.6578 9.10405 23.4937C9.24597 23.3296 9.3257 23.1071 9.3257 22.875C9.3257 22.6429 9.24597 22.4204 9.10405 22.2563C8.96213 22.0922 8.76964 22 8.56894 22ZM8.56894 29H5.54191C5.34121 29 5.14872 29.0922 5.00681 29.2563C4.86489 29.4204 4.78516 29.6429 4.78516 29.875C4.78516 30.1071 4.86489 30.3296 5.00681 30.4937C5.14872 30.6578 5.34121 30.75 5.54191 30.75H8.56894C8.76964 30.75 8.96213 30.6578 9.10405 30.4937C9.24597 30.3296 9.3257 30.1071 9.3257 29.875C9.3257 29.6429 9.24597 29.4204 9.10405 29.2563C8.96213 29.0922 8.76964 29 8.56894 29ZM8.56894 36H5.54191C5.34121 36 5.14872 36.0922 5.00681 36.2563C4.86489 36.4204 4.78516 36.6429 4.78516 36.875C4.78516 37.1071 4.86489 37.3296 5.00681 37.4937C5.14872 37.6578 5.34121 37.75 5.54191 37.75H8.56894C8.76964 37.75 8.96213 37.6578 9.10405 37.4937C9.24597 37.3296 9.3257 37.1071 9.3257 36.875C9.3257 36.6429 9.24597 36.4204 9.10405 36.2563C8.96213 36.0922 8.76964 36 8.56894 36ZM8.56894 43H5.54191C5.34121 43 5.14872 43.0922 5.00681 43.2563C4.86489 43.4204 4.78516 43.6429 4.78516 43.875C4.78516 44.1071 4.86489 44.3296 5.00681 44.4937C5.14872 44.6578 5.34121 44.75 5.54191 44.75H8.56894C8.76964 44.75 8.96213 44.6578 9.10405 44.4937C9.24597 44.3296 9.3257 44.1071 9.3257 43.875C9.3257 43.6429 9.24597 43.4204 9.10405 43.2563C8.96213 43.0922 8.76964 43 8.56894 43ZM8.56894 50H5.54191C5.34121 50 5.14872 50.0922 5.00681 50.2563C4.86489 50.4204 4.78516 50.6429 4.78516 50.875C4.78516 51.1071 4.86489 51.3296 5.00681 51.4937C5.14872 51.6578 5.34121 51.75 5.54191 51.75H8.56894C8.76964 51.75 8.96213 51.6578 9.10405 51.4937C9.24597 51.3296 9.3257 51.1071 9.3257 50.875C9.3257 50.6429 9.24597 50.4204 9.10405 50.2563C8.96213 50.0922 8.76964 50 8.56894 50ZM49.4338 16.75H52.4608C52.6615 16.75 52.854 16.6578 52.9959 16.4937C53.1379 16.3296 53.2176 16.1071 53.2176 15.875C53.2176 15.6429 53.1379 15.4204 52.9959 15.2563C52.854 15.0922 52.6615 15 52.4608 15H49.4338C49.2331 15 49.0406 15.0922 48.8987 15.2563C48.7568 15.4204 48.677 15.6429 48.677 15.875C48.677 16.1071 48.7568 16.3296 48.8987 16.4937C49.0406 16.6578 49.2331 16.75 49.4338 16.75ZM49.4338 9.75H52.4608C52.6615 9.75 52.854 9.65781 52.9959 9.49372C53.1379 9.32962 53.2176 9.10706 53.2176 8.875C53.2176 8.64294 53.1379 8.42038 52.9959 8.25628C52.854 8.09219 52.6615 8 52.4608 8H49.4338C49.2331 8 49.0406 8.09219 48.8987 8.25628C48.7568 8.42038 48.677 8.64294 48.677 8.875C48.677 9.10706 48.7568 9.32962 48.8987 9.49372C49.0406 9.65781 49.2331 9.75 49.4338 9.75ZM49.4338 23.75H52.4608C52.6615 23.75 52.854 23.6578 52.9959 23.4937C53.1379 23.3296 53.2176 23.1071 53.2176 22.875C53.2176 22.6429 53.1379 22.4204 52.9959 22.2563C52.854 22.0922 52.6615 22 52.4608 22H49.4338C49.2331 22 49.0406 22.0922 48.8987 22.2563C48.7568 22.4204 48.677 22.6429 48.677 22.875C48.677 23.1071 48.7568 23.3296 48.8987 23.4937C49.0406 23.6578 49.2331 23.75 49.4338 23.75ZM49.4338 30.75H52.4608C52.6615 30.75 52.854 30.6578 52.9959 30.4937C53.1379 30.3296 53.2176 30.1071 53.2176 29.875C53.2176 29.6429 53.1379 29.4204 52.9959 29.2563C52.854 29.0922 52.6615 29 52.4608 29H49.4338C49.2331 29 49.0406 29.0922 48.8987 29.2563C48.7568 29.4204 48.677 29.6429 48.677 29.875C48.677 30.1071 48.7568 30.3296 48.8987 30.4937C49.0406 30.6578 49.2331 30.75 49.4338 30.75ZM49.4338 37.75H52.4608C52.6615 37.75 52.854 37.6578 52.9959 37.4937C53.1379 37.3296 53.2176 37.1071 53.2176 36.875C53.2176 36.6429 53.1379 36.4204 52.9959 36.2563C52.854 36.0922 52.6615 36 52.4608 36H49.4338C49.2331 36 49.0406 36.0922 48.8987 36.2563C48.7568 36.4204 48.677 36.6429 48.677 36.875C48.677 37.1071 48.7568 37.3296 48.8987 37.4937C49.0406 37.6578 49.2331 37.75 49.4338 37.75ZM49.4338 44.75H52.4608C52.6615 44.75 52.854 44.6578 52.9959 44.4937C53.1379 44.3296 53.2176 44.1071 53.2176 43.875C53.2176 43.6429 53.1379 43.4204 52.9959 43.2563C52.854 43.0922 52.6615 43 52.4608 43H49.4338C49.2331 43 49.0406 43.0922 48.8987 43.2563C48.7568 43.4204 48.677 43.6429 48.677 43.875C48.677 44.1071 48.7568 44.3296 48.8987 44.4937C49.0406 44.6578 49.2331 44.75 49.4338 44.75ZM52.4608 50H49.4338C49.2331 50 49.0406 50.0922 48.8987 50.2563C48.7568 50.4204 48.677 50.6429 48.677 50.875C48.677 51.1071 48.7568 51.3296 48.8987 51.4937C49.0406 51.6578 49.2331 51.75 49.4338 51.75H52.4608C52.6615 51.75 52.854 51.6578 52.9959 51.4937C53.1379 51.3296 53.2176 51.1071 53.2176 50.875C53.2176 50.6429 53.1379 50.4204 52.9959 50.2563C52.854 50.0922 52.6615 50 52.4608 50Z"/>
</mask>
<path d="M23.3666 18.647C23.2524 18.5592 23.1198 18.5088 22.9828 18.5011C22.8458 18.4934 22.7096 18.5287 22.5886 18.6033C22.4683 18.6785 22.3679 18.79 22.2978 18.9258C22.2277 19.0617 22.1907 19.2168 22.1906 19.375V40.375C22.1906 40.5333 22.2278 40.6886 22.2982 40.8243C22.3686 40.9601 22.4694 41.0712 22.5901 41.1459C22.7108 41.2206 22.8468 41.2561 22.9835 41.2485C23.1202 41.241 23.2526 41.1907 23.3666 41.103L36.9882 30.603C37.0915 30.5228 37.1762 30.4145 37.2347 30.2875C37.2933 30.1606 37.3239 30.0189 37.3239 29.875C37.3239 29.7311 37.2933 29.5894 37.2347 29.4625C37.1762 29.3355 37.0915 29.2272 36.9882 29.147L23.3666 18.647ZM23.7041 38.7405V21.0095L35.2053 29.875L23.7041 38.7405ZM8.56894 15H5.54191C5.34121 15 5.14872 15.0922 5.00681 15.2563C4.86489 15.4204 4.78516 15.6429 4.78516 15.875C4.78516 16.1071 4.86489 16.3296 5.00681 16.4937C5.14872 16.6578 5.34121 16.75 5.54191 16.75H8.56894C8.76964 16.75 8.96213 16.6578 9.10405 16.4937C9.24597 16.3296 9.3257 16.1071 9.3257 15.875C9.3257 15.6429 9.24597 15.4204 9.10405 15.2563C8.96213 15.0922 8.76964 15 8.56894 15ZM5.54191 9.75H8.56894C8.76964 9.75 8.96213 9.65781 9.10405 9.49372C9.24597 9.32962 9.3257 9.10706 9.3257 8.875C9.3257 8.64294 9.24597 8.42038 9.10405 8.25628C8.96213 8.09219 8.76964 8 8.56894 8H5.54191C5.34121 8 5.14872 8.09219 5.00681 8.25628C4.86489 8.42038 4.78516 8.64294 4.78516 8.875C4.78516 9.10706 4.86489 9.32962 5.00681 9.49372C5.14872 9.65781 5.34121 9.75 5.54191 9.75ZM8.56894 22H5.54191C5.34121 22 5.14872 22.0922 5.00681 22.2563C4.86489 22.4204 4.78516 22.6429 4.78516 22.875C4.78516 23.1071 4.86489 23.3296 5.00681 23.4937C5.14872 23.6578 5.34121 23.75 5.54191 23.75H8.56894C8.76964 23.75 8.96213 23.6578 9.10405 23.4937C9.24597 23.3296 9.3257 23.1071 9.3257 22.875C9.3257 22.6429 9.24597 22.4204 9.10405 22.2563C8.96213 22.0922 8.76964 22 8.56894 22ZM8.56894 29H5.54191C5.34121 29 5.14872 29.0922 5.00681 29.2563C4.86489 29.4204 4.78516 29.6429 4.78516 29.875C4.78516 30.1071 4.86489 30.3296 5.00681 30.4937C5.14872 30.6578 5.34121 30.75 5.54191 30.75H8.56894C8.76964 30.75 8.96213 30.6578 9.10405 30.4937C9.24597 30.3296 9.3257 30.1071 9.3257 29.875C9.3257 29.6429 9.24597 29.4204 9.10405 29.2563C8.96213 29.0922 8.76964 29 8.56894 29ZM8.56894 36H5.54191C5.34121 36 5.14872 36.0922 5.00681 36.2563C4.86489 36.4204 4.78516 36.6429 4.78516 36.875C4.78516 37.1071 4.86489 37.3296 5.00681 37.4937C5.14872 37.6578 5.34121 37.75 5.54191 37.75H8.56894C8.76964 37.75 8.96213 37.6578 9.10405 37.4937C9.24597 37.3296 9.3257 37.1071 9.3257 36.875C9.3257 36.6429 9.24597 36.4204 9.10405 36.2563C8.96213 36.0922 8.76964 36 8.56894 36ZM8.56894 43H5.54191C5.34121 43 5.14872 43.0922 5.00681 43.2563C4.86489 43.4204 4.78516 43.6429 4.78516 43.875C4.78516 44.1071 4.86489 44.3296 5.00681 44.4937C5.14872 44.6578 5.34121 44.75 5.54191 44.75H8.56894C8.76964 44.75 8.96213 44.6578 9.10405 44.4937C9.24597 44.3296 9.3257 44.1071 9.3257 43.875C9.3257 43.6429 9.24597 43.4204 9.10405 43.2563C8.96213 43.0922 8.76964 43 8.56894 43ZM8.56894 50H5.54191C5.34121 50 5.14872 50.0922 5.00681 50.2563C4.86489 50.4204 4.78516 50.6429 4.78516 50.875C4.78516 51.1071 4.86489 51.3296 5.00681 51.4937C5.14872 51.6578 5.34121 51.75 5.54191 51.75H8.56894C8.76964 51.75 8.96213 51.6578 9.10405 51.4937C9.24597 51.3296 9.3257 51.1071 9.3257 50.875C9.3257 50.6429 9.24597 50.4204 9.10405 50.2563C8.96213 50.0922 8.76964 50 8.56894 50ZM49.4338 16.75H52.4608C52.6615 16.75 52.854 16.6578 52.9959 16.4937C53.1379 16.3296 53.2176 16.1071 53.2176 15.875C53.2176 15.6429 53.1379 15.4204 52.9959 15.2563C52.854 15.0922 52.6615 15 52.4608 15H49.4338C49.2331 15 49.0406 15.0922 48.8987 15.2563C48.7568 15.4204 48.677 15.6429 48.677 15.875C48.677 16.1071 48.7568 16.3296 48.8987 16.4937C49.0406 16.6578 49.2331 16.75 49.4338 16.75ZM49.4338 9.75H52.4608C52.6615 9.75 52.854 9.65781 52.9959 9.49372C53.1379 9.32962 53.2176 9.10706 53.2176 8.875C53.2176 8.64294 53.1379 8.42038 52.9959 8.25628C52.854 8.09219 52.6615 8 52.4608 8H49.4338C49.2331 8 49.0406 8.09219 48.8987 8.25628C48.7568 8.42038 48.677 8.64294 48.677 8.875C48.677 9.10706 48.7568 9.32962 48.8987 9.49372C49.0406 9.65781 49.2331 9.75 49.4338 9.75ZM49.4338 23.75H52.4608C52.6615 23.75 52.854 23.6578 52.9959 23.4937C53.1379 23.3296 53.2176 23.1071 53.2176 22.875C53.2176 22.6429 53.1379 22.4204 52.9959 22.2563C52.854 22.0922 52.6615 22 52.4608 22H49.4338C49.2331 22 49.0406 22.0922 48.8987 22.2563C48.7568 22.4204 48.677 22.6429 48.677 22.875C48.677 23.1071 48.7568 23.3296 48.8987 23.4937C49.0406 23.6578 49.2331 23.75 49.4338 23.75ZM49.4338 30.75H52.4608C52.6615 30.75 52.854 30.6578 52.9959 30.4937C53.1379 30.3296 53.2176 30.1071 53.2176 29.875C53.2176 29.6429 53.1379 29.4204 52.9959 29.2563C52.854 29.0922 52.6615 29 52.4608 29H49.4338C49.2331 29 49.0406 29.0922 48.8987 29.2563C48.7568 29.4204 48.677 29.6429 48.677 29.875C48.677 30.1071 48.7568 30.3296 48.8987 30.4937C49.0406 30.6578 49.2331 30.75 49.4338 30.75ZM49.4338 37.75H52.4608C52.6615 37.75 52.854 37.6578 52.9959 37.4937C53.1379 37.3296 53.2176 37.1071 53.2176 36.875C53.2176 36.6429 53.1379 36.4204 52.9959 36.2563C52.854 36.0922 52.6615 36 52.4608 36H49.4338C49.2331 36 49.0406 36.0922 48.8987 36.2563C48.7568 36.4204 48.677 36.6429 48.677 36.875C48.677 37.1071 48.7568 37.3296 48.8987 37.4937C49.0406 37.6578 49.2331 37.75 49.4338 37.75ZM49.4338 44.75H52.4608C52.6615 44.75 52.854 44.6578 52.9959 44.4937C53.1379 44.3296 53.2176 44.1071 53.2176 43.875C53.2176 43.6429 53.1379 43.4204 52.9959 43.2563C52.854 43.0922 52.6615 43 52.4608 43H49.4338C49.2331 43 49.0406 43.0922 48.8987 43.2563C48.7568 43.4204 48.677 43.6429 48.677 43.875C48.677 44.1071 48.7568 44.3296 48.8987 44.4937C49.0406 44.6578 49.2331 44.75 49.4338 44.75ZM52.4608 50H49.4338C49.2331 50 49.0406 50.0922 48.8987 50.2563C48.7568 50.4204 48.677 50.6429 48.677 50.875C48.677 51.1071 48.7568 51.3296 48.8987 51.4937C49.0406 51.6578 49.2331 51.75 49.4338 51.75H52.4608C52.6615 51.75 52.854 51.6578 52.9959 51.4937C53.1379 51.3296 53.2176 51.1071 53.2176 50.875C53.2176 50.6429 53.1379 50.4204 52.9959 50.2563C52.854 50.0922 52.6615 50 52.4608 50Z" fill="#FFED48"/>
<path d="M23.3666 18.647C23.2524 18.5592 23.1198 18.5088 22.9828 18.5011C22.8458 18.4934 22.7096 18.5287 22.5886 18.6033C22.4683 18.6785 22.3679 18.79 22.2978 18.9258C22.2277 19.0617 22.1907 19.2168 22.1906 19.375V40.375C22.1906 40.5333 22.2278 40.6886 22.2982 40.8243C22.3686 40.9601 22.4694 41.0712 22.5901 41.1459C22.7108 41.2206 22.8468 41.2561 22.9835 41.2485C23.1202 41.241 23.2526 41.1907 23.3666 41.103L36.9882 30.603C37.0915 30.5228 37.1762 30.4145 37.2347 30.2875C37.2933 30.1606 37.3239 30.0189 37.3239 29.875C37.3239 29.7311 37.2933 29.5894 37.2347 29.4625C37.1762 29.3355 37.0915 29.2272 36.9882 29.147L23.3666 18.647ZM23.7041 38.7405V21.0095L35.2053 29.875L23.7041 38.7405ZM8.56894 15H5.54191C5.34121 15 5.14872 15.0922 5.00681 15.2563C4.86489 15.4204 4.78516 15.6429 4.78516 15.875C4.78516 16.1071 4.86489 16.3296 5.00681 16.4937C5.14872 16.6578 5.34121 16.75 5.54191 16.75H8.56894C8.76964 16.75 8.96213 16.6578 9.10405 16.4937C9.24597 16.3296 9.3257 16.1071 9.3257 15.875C9.3257 15.6429 9.24597 15.4204 9.10405 15.2563C8.96213 15.0922 8.76964 15 8.56894 15ZM5.54191 9.75H8.56894C8.76964 9.75 8.96213 9.65781 9.10405 9.49372C9.24597 9.32962 9.3257 9.10706 9.3257 8.875C9.3257 8.64294 9.24597 8.42038 9.10405 8.25628C8.96213 8.09219 8.76964 8 8.56894 8H5.54191C5.34121 8 5.14872 8.09219 5.00681 8.25628C4.86489 8.42038 4.78516 8.64294 4.78516 8.875C4.78516 9.10706 4.86489 9.32962 5.00681 9.49372C5.14872 9.65781 5.34121 9.75 5.54191 9.75ZM8.56894 22H5.54191C5.34121 22 5.14872 22.0922 5.00681 22.2563C4.86489 22.4204 4.78516 22.6429 4.78516 22.875C4.78516 23.1071 4.86489 23.3296 5.00681 23.4937C5.14872 23.6578 5.34121 23.75 5.54191 23.75H8.56894C8.76964 23.75 8.96213 23.6578 9.10405 23.4937C9.24597 23.3296 9.3257 23.1071 9.3257 22.875C9.3257 22.6429 9.24597 22.4204 9.10405 22.2563C8.96213 22.0922 8.76964 22 8.56894 22ZM8.56894 29H5.54191C5.34121 29 5.14872 29.0922 5.00681 29.2563C4.86489 29.4204 4.78516 29.6429 4.78516 29.875C4.78516 30.1071 4.86489 30.3296 5.00681 30.4937C5.14872 30.6578 5.34121 30.75 5.54191 30.75H8.56894C8.76964 30.75 8.96213 30.6578 9.10405 30.4937C9.24597 30.3296 9.3257 30.1071 9.3257 29.875C9.3257 29.6429 9.24597 29.4204 9.10405 29.2563C8.96213 29.0922 8.76964 29 8.56894 29ZM8.56894 36H5.54191C5.34121 36 5.14872 36.0922 5.00681 36.2563C4.86489 36.4204 4.78516 36.6429 4.78516 36.875C4.78516 37.1071 4.86489 37.3296 5.00681 37.4937C5.14872 37.6578 5.34121 37.75 5.54191 37.75H8.56894C8.76964 37.75 8.96213 37.6578 9.10405 37.4937C9.24597 37.3296 9.3257 37.1071 9.3257 36.875C9.3257 36.6429 9.24597 36.4204 9.10405 36.2563C8.96213 36.0922 8.76964 36 8.56894 36ZM8.56894 43H5.54191C5.34121 43 5.14872 43.0922 5.00681 43.2563C4.86489 43.4204 4.78516 43.6429 4.78516 43.875C4.78516 44.1071 4.86489 44.3296 5.00681 44.4937C5.14872 44.6578 5.34121 44.75 5.54191 44.75H8.56894C8.76964 44.75 8.96213 44.6578 9.10405 44.4937C9.24597 44.3296 9.3257 44.1071 9.3257 43.875C9.3257 43.6429 9.24597 43.4204 9.10405 43.2563C8.96213 43.0922 8.76964 43 8.56894 43ZM8.56894 50H5.54191C5.34121 50 5.14872 50.0922 5.00681 50.2563C4.86489 50.4204 4.78516 50.6429 4.78516 50.875C4.78516 51.1071 4.86489 51.3296 5.00681 51.4937C5.14872 51.6578 5.34121 51.75 5.54191 51.75H8.56894C8.76964 51.75 8.96213 51.6578 9.10405 51.4937C9.24597 51.3296 9.3257 51.1071 9.3257 50.875C9.3257 50.6429 9.24597 50.4204 9.10405 50.2563C8.96213 50.0922 8.76964 50 8.56894 50ZM49.4338 16.75H52.4608C52.6615 16.75 52.854 16.6578 52.9959 16.4937C53.1379 16.3296 53.2176 16.1071 53.2176 15.875C53.2176 15.6429 53.1379 15.4204 52.9959 15.2563C52.854 15.0922 52.6615 15 52.4608 15H49.4338C49.2331 15 49.0406 15.0922 48.8987 15.2563C48.7568 15.4204 48.677 15.6429 48.677 15.875C48.677 16.1071 48.7568 16.3296 48.8987 16.4937C49.0406 16.6578 49.2331 16.75 49.4338 16.75ZM49.4338 9.75H52.4608C52.6615 9.75 52.854 9.65781 52.9959 9.49372C53.1379 9.32962 53.2176 9.10706 53.2176 8.875C53.2176 8.64294 53.1379 8.42038 52.9959 8.25628C52.854 8.09219 52.6615 8 52.4608 8H49.4338C49.2331 8 49.0406 8.09219 48.8987 8.25628C48.7568 8.42038 48.677 8.64294 48.677 8.875C48.677 9.10706 48.7568 9.32962 48.8987 9.49372C49.0406 9.65781 49.2331 9.75 49.4338 9.75ZM49.4338 23.75H52.4608C52.6615 23.75 52.854 23.6578 52.9959 23.4937C53.1379 23.3296 53.2176 23.1071 53.2176 22.875C53.2176 22.6429 53.1379 22.4204 52.9959 22.2563C52.854 22.0922 52.6615 22 52.4608 22H49.4338C49.2331 22 49.0406 22.0922 48.8987 22.2563C48.7568 22.4204 48.677 22.6429 48.677 22.875C48.677 23.1071 48.7568 23.3296 48.8987 23.4937C49.0406 23.6578 49.2331 23.75 49.4338 23.75ZM49.4338 30.75H52.4608C52.6615 30.75 52.854 30.6578 52.9959 30.4937C53.1379 30.3296 53.2176 30.1071 53.2176 29.875C53.2176 29.6429 53.1379 29.4204 52.9959 29.2563C52.854 29.0922 52.6615 29 52.4608 29H49.4338C49.2331 29 49.0406 29.0922 48.8987 29.2563C48.7568 29.4204 48.677 29.6429 48.677 29.875C48.677 30.1071 48.7568 30.3296 48.8987 30.4937C49.0406 30.6578 49.2331 30.75 49.4338 30.75ZM49.4338 37.75H52.4608C52.6615 37.75 52.854 37.6578 52.9959 37.4937C53.1379 37.3296 53.2176 37.1071 53.2176 36.875C53.2176 36.6429 53.1379 36.4204 52.9959 36.2563C52.854 36.0922 52.6615 36 52.4608 36H49.4338C49.2331 36 49.0406 36.0922 48.8987 36.2563C48.7568 36.4204 48.677 36.6429 48.677 36.875C48.677 37.1071 48.7568 37.3296 48.8987 37.4937C49.0406 37.6578 49.2331 37.75 49.4338 37.75ZM49.4338 44.75H52.4608C52.6615 44.75 52.854 44.6578 52.9959 44.4937C53.1379 44.3296 53.2176 44.1071 53.2176 43.875C53.2176 43.6429 53.1379 43.4204 52.9959 43.2563C52.854 43.0922 52.6615 43 52.4608 43H49.4338C49.2331 43 49.0406 43.0922 48.8987 43.2563C48.7568 43.4204 48.677 43.6429 48.677 43.875C48.677 44.1071 48.7568 44.3296 48.8987 44.4937C49.0406 44.6578 49.2331 44.75 49.4338 44.75ZM52.4608 50H49.4338C49.2331 50 49.0406 50.0922 48.8987 50.2563C48.7568 50.4204 48.677 50.6429 48.677 50.875C48.677 51.1071 48.7568 51.3296 48.8987 51.4937C49.0406 51.6578 49.2331 51.75 49.4338 51.75H52.4608C52.6615 51.75 52.854 51.6578 52.9959 51.4937C53.1379 51.3296 53.2176 51.1071 53.2176 50.875C53.2176 50.6429 53.1379 50.4204 52.9959 50.2563C52.854 50.0922 52.6615 50 52.4608 50Z" stroke="#FFED48" stroke-width="2" mask="url(#path-2-outside-1_129_141)"/>
</svg>
