<svg width="56" height="56" viewBox="0 0 56 56" fill="none" xmlns="http://www.w3.org/2000/svg">
<path d="M52 56H4C2.93946 55.9989 1.92266 55.5772 1.17274 54.8273C0.422826 54.0773 0.00105895 53.0605 0 52V4C0.00105895 2.93946 0.422826 1.92266 1.17274 1.17274C1.92266 0.422826 2.93946 0.00105895 4 0H52C53.0605 0.00105895 54.0773 0.422826 54.8273 1.17274C55.5772 1.92266 55.9989 2.93946 56 4V52C55.9989 53.0605 55.5772 54.0773 54.8273 54.8273C54.0773 55.5772 53.0605 55.9989 52 56ZM4 4V52H52V4H4Z" fill="white"/>
<path d="M22 10H26V24H22V10ZM12 10H16V24H12V10ZM40 24H36C34.9395 23.9989 33.9227 23.5772 33.1727 22.8273C32.4228 22.0773 32.0011 21.0605 32 20V14C32.0011 12.9395 32.4228 11.9227 33.1727 11.1727C33.9227 10.4228 34.9395 10.0011 36 10H40C41.0605 10.0011 42.0773 10.4228 42.8273 11.1727C43.5772 11.9227 43.9989 12.9395 44 14V20C43.9989 21.0605 43.5772 22.0773 42.8273 22.8273C42.0773 23.5772 41.0605 23.9989 40 24ZM36 14V20H40V14H36ZM40 32H44V46H40V32ZM12 32H16V46H12V32ZM30 46H26C24.9395 45.9989 23.9227 45.5772 23.1727 44.8273C22.4228 44.0773 22.0011 43.0605 22 42V36C22.0011 34.9395 22.4228 33.9227 23.1727 33.1727C23.9227 32.4228 24.9395 32.0011 26 32H30C31.0605 32.0011 32.0773 32.4228 32.8273 33.1727C33.5772 33.9227 33.9989 34.9395 34 36V42C33.9989 43.0605 33.5772 44.0773 32.8273 44.8273C32.0773 45.5772 31.0605 45.9989 30 46ZM26 36V42H30V36H26Z" fill="#FFED48"/>
</svg>
