<svg width="60" height="60" viewBox="0 0 60 60" fill="none" xmlns="http://www.w3.org/2000/svg">
<path d="M2 44.5434L15.2629 22.885L41.1242 5.58097M54.9728 2H5.02702C4.2242 2 3.45427 2.31892 2.88659 2.8866C2.31892 3.45427 2 4.22421 2 5.02703V54.973C2 55.7758 2.31892 56.5457 2.88659 57.1134C3.45427 57.6811 4.2242 58 5.02702 58H54.9728C55.7756 58 56.5456 57.6811 57.1132 57.1134C57.6809 56.5457 57.9998 55.7758 57.9998 54.973V5.02703C57.9998 4.22421 57.6809 3.45427 57.1132 2.8866C56.5456 2.31892 55.7756 2 54.9728 2Z" stroke="white" stroke-width="2.46" stroke-linecap="round" stroke-linejoin="round"/>
<path d="M57.9987 27.922H36.3812C31.5274 27.9765 24.6742 32.6502 24.7151 39.8273V58.0001M41.123 5.58105L38.6666 27.922M33.6614 10.5726L40.1317 14.5895M15.2617 22.8851L28.4081 31.4833" stroke="#FFED48" stroke-width="2.46" stroke-linecap="round" stroke-linejoin="round"/>
<path d="M39.8634 32.7314C38.6889 39.4469 38.978 45.5358 40.2887 51.39" stroke="white" stroke-width="2.46" stroke-linecap="round" stroke-linejoin="round"/>
<path d="M33.0916 35.9908C38.3511 36.5251 43.5621 36.2406 48.7307 35.2734M45.9686 38.4624C45.6916 47.1258 32.7239 55.2775 32.8525 48.2533C32.9191 44.6012 37.8062 40.4497 42.71 40.3906C46.4484 40.3452 50.833 41.7271 50.8633 45.081C50.9026 49.5201 47.2763 52.081 43.3926 52.3973" stroke="#FFED48" stroke-width="2.46" stroke-linecap="round" stroke-linejoin="round"/>
</svg>
